<svg xmlns="http://www.w3.org/2000/svg"  viewBox="0 0 64 64" width="64px" height="64px"><path fill="#f283a5" d="M48.929,57.95H7.071C4.27,57.95,2,55.68,2,52.879l8-41.809c0-2.801,2.27-5.071,5.071-5.071h41.858 C59.73,5.999,62,8.269,62,11.07l-8,41.809C54,55.68,51.73,57.95,48.929,57.95z"/><path fill="#ed7899" d="M51,57.95H6c-0.952,0-4.952-5.994-4-5.994h52C54.952,51.956,51.952,57.95,51,57.95z"/><path fill="#8d6c9f" d="M9,50c-0.551,0-1,0.445-1,1v2c0,0.555,0.449,1,1,1s1-0.445,1-1v-2C10,50.445,9.551,50,9,50z"/><path fill="#8d6c9f" d="M14,50c-0.551,0-1,0.445-1,1v2c0,0.555,0.449,1,1,1s1-0.445,1-1v-2C15,50.445,14.551,50,14,50z"/><path fill="#8d6c9f" d="M19,50c-0.551,0-1,0.445-1,1v2c0,0.555,0.449,1,1,1s1-0.445,1-1v-2C20,50.445,19.551,50,19,50z"/><path fill="#8d6c9f" d="M24,50c-0.551,0-1,0.445-1,1v2c0,0.555,0.449,1,1,1s1-0.445,1-1v-2C25,50.445,24.551,50,24,50z"/><path fill="#8d6c9f" d="M29,50c-0.551,0-1,0.445-1,1v2c0,0.555,0.449,1,1,1s1-0.445,1-1v-2C30,50.445,29.551,50,29,50z"/><path fill="#8d6c9f" d="M34,50c-0.551,0-1,0.445-1,1v2c0,0.555,0.449,1,1,1s1-0.445,1-1v-2C35,50.445,34.551,50,34,50z"/><path fill="#8d6c9f" d="M39,50c-0.551,0-1,0.445-1,1v2c0,0.555,0.449,1,1,1s1-0.445,1-1v-2C40,50.445,39.551,50,39,50z"/><path fill="#8d6c9f" d="M44,50c-0.551,0-1,0.445-1,1v2c0,0.555,0.449,1,1,1s1-0.445,1-1v-2C45,50.445,44.551,50,44,50z"/><path fill="#8d6c9f" d="M49,50c-0.551,0-1,0.445-1,1v2c0,0.555,0.449,1,1,1s1-0.445,1-1v-2C50,50.445,49.551,50,49,50z"/><path fill="#fff8ee" d="M54,27h-8.522l-9.046,7.152L38.174,27H31h-8c1.779-1.08,4.005-1.645,6.186-2.309 C33.233,23.459,39,22.063,39,17.333C39,13.95,35.033,10,27.182,10c-8.413,0-11.818,5.597-11.818,8.556h7.091 c0-0.149,0-3.667,4.727-3.667c3.879,0,4.727,1.23,4.727,2.444c0,1.073-1.559,2.088-4.057,2.667C13,23.444,13,32,13,32h16.652L26,47 h7.304l1.169-4.8l0.049,0.094l2.882-2.263L40.609,47h8.522l-5.952-11.503L54,27z"/><path fill="#8d6c9f" d="M49.13,48h-8.521c-0.391,0-0.745-0.228-0.909-0.582l-2.675-5.817l-1.702,1.335l-1.047,4.301 C34.167,47.685,33.765,48,33.304,48H26c-0.307,0-0.597-0.141-0.786-0.382c-0.19-0.241-0.258-0.557-0.186-0.854L28.379,33H13 c-0.552,0-1-0.447-1-1c0-0.382,0.178-9.392,15.626-12.975c2.505-0.58,3.283-1.443,3.283-1.692c0-0.958-1.254-1.444-3.728-1.444 c-3.547,0-3.727,2.222-3.727,2.667c0,0.553-0.448,1-1,1h-7.091c-0.552,0-1-0.447-1-1c0-3.332,3.76-9.556,12.818-9.556 C35.507,9,40,13.293,40,17.333c0,5.168-5.618,6.848-9.72,8.073l-1.767,0.53c-0.072,0.021-0.143,0.042-0.215,0.063h9.875 c0.307,0,0.597,0.141,0.786,0.382c0.19,0.241,0.258,0.557,0.186,0.854l-1.054,4.329l6.767-5.35c0.176-0.14,0.395-0.216,0.62-0.216 H54c0.426,0,0.806,0.271,0.945,0.673c0.139,0.403,0.008,0.851-0.328,1.113l-10.17,7.986l5.571,10.768 c0.16,0.311,0.147,0.682-0.034,0.979C49.803,47.818,49.479,48,49.13,48z M41.25,46h6.237l-5.196-10.043 c-0.221-0.427-0.107-0.95,0.271-1.246L51.107,28h-5.281l-8.773,6.937c-0.334,0.266-0.801,0.287-1.16,0.058 c-0.359-0.23-0.533-0.664-0.432-1.078L36.901,28H23c-0.449,0-0.842-0.299-0.963-0.73c-0.121-0.432,0.061-0.892,0.444-1.124 c1.63-0.99,3.579-1.567,5.463-2.127l1.763-0.528C34.406,22.086,38,20.741,38,17.333C38,14.703,34.644,11,27.182,11 c-6.756,0-10.02,3.844-10.687,6.556h5.083c0.402-1.672,1.876-3.667,5.604-3.667c4.734,0,5.728,1.873,5.728,3.444 c0,1.603-1.761,2.93-4.832,3.642C17.114,23.517,14.688,28.783,14.152,31h15.5c0.307,0,0.597,0.141,0.786,0.382 c0.19,0.241,0.258,0.557,0.186,0.854L27.272,46h5.246l0.983-4.036c0.092-0.377,0.392-0.664,0.767-0.742l2.518-1.977 c0.241-0.189,0.555-0.261,0.853-0.186c0.297,0.071,0.546,0.275,0.674,0.554L41.25,46z"/><g><path fill="#8d6c9f" d="M48.87,59H7.053c-1.796,0-3.482-0.794-4.626-2.179c-1.144-1.385-1.605-3.19-1.266-4.954l8.077-42 C9.78,7.047,12.258,5,15.13,5h41.817c1.796,0,3.482,0.794,4.626,2.179c1.144,1.385,1.605,3.19,1.266,4.954l-8.077,42 C54.22,56.953,51.742,59,48.87,59z M15.13,7c-1.915,0-3.566,1.364-3.928,3.244l-8.077,42c-0.226,1.177,0.082,2.38,0.844,3.304 C4.732,56.471,5.856,57,7.053,57H48.87c1.915,0,3.566-1.364,3.928-3.244l8.077-42c0.226-1.177-0.082-2.38-0.844-3.304 C59.268,7.529,58.144,7,56.947,7H15.13z"/></g></svg>